<?xml version="1.0" encoding="UTF-8" standalone="no"?><!DOCTYPE svg PUBLIC "-//W3C//DTD SVG 1.1//EN" "http://www.w3.org/Graphics/SVG/1.1/DTD/svg11.dtd"><svg width="4171px" height="1230px" version="1.1" xmlns="http://www.w3.org/2000/svg" xmlns:xlink="http://www.w3.org/1999/xlink" xml:space="preserve" xmlns:serif="http://www.serif.com/" style="fill-rule:evenodd;clip-rule:evenodd;stroke-linejoin:round;stroke-miterlimit:2;"><rect id="lamett" x="0.129" y="0" width="4166.67" height="1229.17" style="fill:none;"/><clipPath id="_clip1"><rect id="lamett1" serif:id="lamett" x="0.129" y="0" width="4166.67" height="1229.17"/></clipPath><g clip-path="url(#_clip1)"><path d="M0.129,940.871l4166.67,264.096l0,-916.671l-4166.67,-264.096l-0,916.671Z" style="fill:#a05742;fill-rule:nonzero;"/><g id="Layer-1" serif:id="Layer 1"><g><path d="M3178.37,509.616c-17.11,0 -29.595,-13.41 -29.595,-30.29c-0,-16.645 12.485,-30.286 29.361,-30.286c16.88,-0 29.132,13.641 29.132,30.52c-0,16.646 -12.252,30.056 -28.898,30.056m-0.234,-68.206c-21.733,0 -39.072,16.877 -39.072,37.916c-0,21.503 17.339,38.381 39.072,38.381c21.966,0 38.845,-16.878 38.845,-38.381c-0,-21.039 -16.879,-37.916 -38.845,-37.916" style="fill:#fff;fill-rule:nonzero;"/><path d="M3176.52,477.71l-4.16,0l-0,-10.868c0.924,-0.231 2.543,-0.461 4.856,-0.461c5.547,-0 8.091,2.312 8.091,5.779c-0,3.931 -3.93,5.55 -8.787,5.55m10.405,2.773l0,-0.46c4.625,-1.389 7.862,-4.628 7.862,-8.788c0,-3.698 -1.618,-6.705 -3.699,-8.322c-2.775,-1.619 -6.011,-2.775 -13.18,-2.775c-6.242,0 -11.098,0.46 -14.567,1.156l0,37.917l8.787,-0l0,-15.261l4.161,0c4.858,0 7.169,1.851 7.863,6.014c1.155,4.392 1.848,7.86 3.003,9.247l9.481,-0c-0.925,-1.387 -1.618,-3.699 -2.775,-9.479c-1.156,-5.086 -3.237,-7.861 -6.936,-9.249" style="fill:#fff;fill-rule:nonzero;"/><rect x="1378.35" y="395.269" width="94.125" height="430.632" style="fill:#fff;"/><path d="M1678.64,755.77c-43.679,0 -70.746,-33.221 -70.746,-78.128c-0,-44.91 27.067,-77.516 70.746,-77.516c46.754,0 70.747,35.066 70.747,77.516c-0,43.063 -23.993,78.128 -70.747,78.128m67.056,-183.94c-15.995,-30.146 -49.831,-50.447 -92.893,-50.447c-86.129,-0 -140.88,67.67 -140.88,156.259c0,89.2 51.061,156.256 139.648,156.256c41.217,0 78.13,-20.301 94.125,-49.828l0,41.831l93.507,0l-0,-296.521l-93.507,-0l0,42.45Z" style="fill:#fff;fill-rule:nonzero;"/><path d="M2255.27,521.382c-43.679,0 -78.743,22.765 -94.738,54.752c-12.92,-31.375 -39.989,-54.752 -92.896,-54.752c-41.216,0 -71.976,21.534 -84.894,51.061l0,-43.064l-94.125,0l-0,296.522l94.125,-0l0,-152.566c0,-55.982 20.3,-72.593 50.444,-72.593c28.915,0 43.679,16.611 43.679,57.83l0,167.329l94.739,-0l-0,-152.566c-0,-55.982 20.301,-72.593 49.828,-72.593c28.915,0 44.295,17.227 44.295,58.443l0,166.716l94.74,-0l-0,-183.94c-0,-62.133 -20.303,-120.579 -105.197,-120.579" style="fill:#fff;fill-rule:nonzero;"/><path d="M2487.05,645.036c0.616,-36.296 25.224,-60.29 65.827,-60.29c39.985,0 62.134,20.918 62.75,60.29l-128.577,0Zm66.439,-123.654c-96.582,0 -159.947,59.058 -159.947,156.26c0,99.046 62.133,156.256 163.027,156.256c78.744,-0 138.417,-38.756 147.642,-97.198l-92.275,-0c-7.998,18.454 -26.456,26.451 -55.367,26.451c-41.836,0 -67.671,-20.916 -69.519,-59.673l219.009,0c1.843,-16.61 2.459,-25.836 2.459,-41.216c-0,-83.665 -62.749,-140.88 -155.029,-140.88" style="fill:#fff;fill-rule:nonzero;"/><path d="M3065.25,702.247l0,-98.43l67.055,0l-0,-74.437l-67.055,0l0,-87.969l-94.123,-0l-0,87.969l-109.955,0l-0,-87.969l-94.123,-0l-0,87.969l-42.909,0l0,74.437l42.909,0l-0,118.116c-0,99.046 60.905,108.89 105.195,108.89c27.069,0 49.218,-2.463 62.75,-4.923l-0,-75.052c-8.611,1.232 -22.146,1.847 -32.603,1.847c-23.376,0 -41.219,-6.77 -41.219,-50.448l-0,-98.43l109.955,0l-0,118.116c-0,99.046 60.905,108.89 105.195,108.89c27.068,0 49.218,-2.463 62.749,-4.923l-0,-75.052c-8.609,1.232 -22.145,1.847 -32.601,1.847c-23.378,0 -41.22,-6.77 -41.22,-50.448" style="fill:#fff;fill-rule:nonzero;"/><rect x="949.94" y="787.452" width="385.106" height="38.448" style="fill:#fff;"/></g></g></g></svg>